<?xml version="1.0" encoding="UTF-8" standalone="no"?>
<!-- Created with Inkscape (http://www.inkscape.org/) -->

<svg
   xmlns:dc="http://purl.org/dc/elements/1.1/"
   xmlns:cc="http://creativecommons.org/ns#"
   xmlns:rdf="http://www.w3.org/1999/02/22-rdf-syntax-ns#"
   xmlns:svg="http://www.w3.org/2000/svg"
   xmlns="http://www.w3.org/2000/svg"
   version="1.1"
   width="1024"
   height="1024"
   id="svg3164">
  <defs
     id="defs3166" />
  <metadata
     id="metadata3169">
    <rdf:RDF>
      <cc:Work
         rdf:about="">
        <dc:format>image/svg+xml</dc:format>
        <dc:type
           rdf:resource="http://purl.org/dc/dcmitype/StillImage" />
        <dc:title></dc:title>
      </cc:Work>
    </rdf:RDF>
  </metadata>
  <path
     d="M -6.2319527e-6,-2.4707825 1024,-2.4707825 l 0,1023.9999825 -1024.0000062319525,0 z"
     id="path3033"
     style="fill:#ffffff;fill-opacity:1;stroke:none" />
  <g
     id="g3035">
    <path
       d="M -1.2463905e-5,-2.4707651 1024,-2.4707651 l 0,1023.9999651 -1024.000012463905,0 z"
       id="path3011"
       style="fill:#ffffff;fill-opacity:1;stroke:none" />
    <path
       d="M 357.71875,297.15625 195.53125,670.6875 0,526.8125 0,926.125 8.3125,957.15625 c 1.5553239,5.80455 4.450447,11.09337 8.34375,15.4375 3.893565,4.34511 8.890346,7.82729 14.46875,10.40625 5.578401,2.57895 11.733809,4.27517 18.34375,4.78125 6.609845,0.50612 13.574257,-0.25251 20.5625,-2.125 L 91.625,979.875 510.5625,867.625 357.71875,297.15625 z"
       id="path3009"
       style="fill:#999999;fill-opacity:1;stroke:none" />
    <path
       d="M 307.90625,152.875 0,235.375 0,396.625 151.8125,507.53125 307.90625,152.875 z"
       id="rect2986"
       style="fill:#333333;fill-opacity:1;stroke:none" />
    <path
       d="m 656.37123,59.504964 c 22.69543,3.809319 44.0855,10.817271 64.15725,21.213338 53.80926,27.871648 89.59794,75.165248 107.41514,141.657598 11.94273,44.57323 11.3838,86.91141 -1.57781,127.19079 -12.96207,40.28157 -36.53852,73.50105 -70.84294,99.52897 -34.40294,25.6645 -87.61756,48.11772 -159.55875,67.39325 l -80.73061,21.63171 82.07639,306.31324 360.9227,-96.70895 c 27.95298,-7.48997 45.4214,-32.31122 39.19884,-55.53431 L 827.62876,58.478363 C 821.40615,35.255275 793.90971,22.651639 765.95673,30.141616 l -109.5855,29.363348 z"
       id="path5952"
       style="fill:#333333;fill-opacity:1;stroke:none" />
    <path
       d="m 424.91596,201.05094 64.1908,239.56333 119.36149,-31.98282 c 44.32723,-11.87641 75.72042,-31.44429 94.12146,-58.69439 18.30208,-27.61549 22.1669,-61.07121 11.69239,-100.16456 -21.04715,-78.54709 -79.82147,-104.86889 -176.46944,-78.97214 l -112.8967,30.25058 z"
       id="path5954"
       style="fill:#b80000;fill-opacity:1;stroke:none" />
  </g>
  <path
     d="M -1.2463905e-5,-2.4707651 1024,-2.4707651 l 0,1023.9999651 -1024.000012463905,0 z"
     id="path3052"
     style="fill:#ffffff;fill-opacity:1;stroke:none" />
  <path
     d="M 357.71875,297.15625 195.53125,670.6875 0,526.8125 0,926.125 8.3125,957.15625 c 1.5553239,5.80455 4.450447,11.09337 8.34375,15.4375 3.893565,4.34511 8.890346,7.82729 14.46875,10.40625 5.578401,2.57895 11.733809,4.27517 18.34375,4.78125 6.609845,0.50612 13.574257,-0.25251 20.5625,-2.125 L 91.625,979.875 510.5625,867.625 357.71875,297.15625 z"
     id="path3054"
     style="fill:#999999;fill-opacity:1;stroke:none" />
  <path
     d="M 307.90625,152.875 0,235.375 0,396.625 151.8125,507.53125 307.90625,152.875 z"
     id="path3056"
     style="fill:#333333;fill-opacity:1;stroke:none" />
  <path
     d="m 656.37123,59.504964 c 22.69543,3.809319 44.0855,10.817271 64.15725,21.213338 53.80926,27.871648 89.59794,75.165248 107.41514,141.657598 11.94273,44.57323 11.3838,86.91141 -1.57781,127.19079 -12.96207,40.28157 -36.53852,73.50105 -70.84294,99.52897 -34.40294,25.6645 -87.61756,48.11772 -159.55875,67.39325 l -80.73061,21.63171 82.07639,306.31324 360.9227,-96.70895 c 27.95298,-7.48997 45.4214,-32.31122 39.19884,-55.53431 L 827.62876,58.478363 C 821.40615,35.255275 793.90971,22.651639 765.95673,30.141616 l -109.5855,29.363348 z"
     id="path3058"
     style="fill:#333333;fill-opacity:1;stroke:none" />
  <path
     d="m 424.91596,201.05094 64.1908,239.56333 119.36149,-31.98282 c 44.32723,-11.87641 75.72042,-31.44429 94.12146,-58.69439 18.30208,-27.61549 22.1669,-61.07121 11.69239,-100.16456 -21.04715,-78.54709 -79.82147,-104.86889 -176.46944,-78.97214 l -112.8967,30.25058 z"
     id="path3060"
     style="fill:#b80000;fill-opacity:1;stroke:none" />
</svg>
